<mxfile host="65bd71144e">
    <diagram id="0he6kGy0d1rolan2nA3w" name="第 1 页">
        <mxGraphModel dx="538" dy="387" grid="1" gridSize="10" guides="1" tooltips="1" connect="0" arrows="1" fold="1" page="1" pageScale="1" pageWidth="827" pageHeight="1169" math="0" shadow="0">
            <root>
                <mxCell id="0"/>
                <mxCell id="1" style="" parent="0"/>
                <mxCell id="3" value="" style="endArrow=classic;html=1;" edge="1" parent="1" source="172">
                    <mxGeometry width="50" height="50" relative="1" as="geometry">
                        <mxPoint x="360" y="78" as="sourcePoint"/>
                        <mxPoint x="360" y="580" as="targetPoint"/>
                    </mxGeometry>
                </mxCell>
                <mxCell id="300" value="" style="endArrow=classic;html=1;exitX=0.35;exitY=0.5;exitDx=0;exitDy=0;exitPerimeter=0;" edge="1" parent="1" source="172">
                    <mxGeometry width="50" height="50" relative="1" as="geometry">
                        <mxPoint x="500" as="sourcePoint"/>
                        <mxPoint x="810" y="160" as="targetPoint"/>
                    </mxGeometry>
                </mxCell>
                <mxCell id="158" value="排列" style="locked=1;" parent="0"/>
                <mxCell id="172" value="1" style="shape=waypoint;sketch=0;fillStyle=solid;size=6;pointerEvents=1;points=[];fillColor=none;resizable=0;rotatable=0;perimeter=centerPerimeter;snapToPoint=1;fontSize=12;verticalAlign=top;align=left;fontStyle=0;horizontal=1;spacing=2;spacingTop=2;spacingLeft=8;" vertex="1" parent="158">
                    <mxGeometry x="340" y="140" width="40" height="40" as="geometry"/>
                </mxCell>
                <mxCell id="173" value="2" style="shape=waypoint;sketch=0;fillStyle=solid;size=6;pointerEvents=1;points=[];fillColor=none;resizable=0;rotatable=0;perimeter=centerPerimeter;snapToPoint=1;verticalAlign=top;align=left;fontStyle=0;horizontal=1;spacing=2;spacingTop=2;spacingLeft=8;" vertex="1" parent="158">
                    <mxGeometry x="380" y="140" width="40" height="40" as="geometry"/>
                </mxCell>
                <mxCell id="174" value="3" style="shape=waypoint;sketch=0;fillStyle=solid;size=6;pointerEvents=1;points=[];fillColor=none;resizable=0;rotatable=0;perimeter=centerPerimeter;snapToPoint=1;verticalAlign=top;align=left;fontStyle=0;horizontal=1;spacing=2;spacingTop=2;spacingLeft=8;" vertex="1" parent="158">
                    <mxGeometry x="420" y="140" width="40" height="40" as="geometry"/>
                </mxCell>
                <mxCell id="175" value="4" style="shape=waypoint;sketch=0;fillStyle=solid;size=6;pointerEvents=1;points=[];fillColor=none;resizable=0;rotatable=0;perimeter=centerPerimeter;snapToPoint=1;verticalAlign=top;align=left;fontStyle=0;horizontal=1;spacing=2;spacingTop=2;spacingLeft=8;" vertex="1" parent="158">
                    <mxGeometry x="460" y="140" width="40" height="40" as="geometry"/>
                </mxCell>
                <mxCell id="176" value="5" style="shape=waypoint;sketch=0;fillStyle=solid;size=6;pointerEvents=1;points=[];fillColor=none;resizable=0;rotatable=0;perimeter=centerPerimeter;snapToPoint=1;verticalAlign=top;align=left;fontStyle=0;horizontal=1;spacing=2;spacingTop=2;spacingLeft=8;" vertex="1" parent="158">
                    <mxGeometry x="500" y="140" width="40" height="40" as="geometry"/>
                </mxCell>
                <mxCell id="177" value="6" style="shape=waypoint;sketch=0;fillStyle=solid;size=6;pointerEvents=1;points=[];fillColor=none;resizable=0;rotatable=0;perimeter=centerPerimeter;snapToPoint=1;verticalAlign=top;align=left;fontStyle=0;horizontal=1;spacing=2;spacingTop=2;spacingLeft=8;" vertex="1" parent="158">
                    <mxGeometry x="540" y="140" width="40" height="40" as="geometry"/>
                </mxCell>
                <mxCell id="178" value="7" style="shape=waypoint;sketch=0;fillStyle=solid;size=6;pointerEvents=1;points=[];fillColor=none;resizable=0;rotatable=0;perimeter=centerPerimeter;snapToPoint=1;verticalAlign=top;align=left;fontStyle=0;horizontal=1;spacing=2;spacingTop=2;spacingLeft=8;" vertex="1" parent="158">
                    <mxGeometry x="580" y="140" width="40" height="40" as="geometry"/>
                </mxCell>
                <mxCell id="179" value="8" style="shape=waypoint;sketch=0;fillStyle=solid;size=6;pointerEvents=1;points=[];fillColor=none;resizable=0;rotatable=0;perimeter=centerPerimeter;snapToPoint=1;verticalAlign=top;align=left;fontStyle=0;horizontal=1;spacing=2;spacingTop=2;spacingLeft=8;" vertex="1" parent="158">
                    <mxGeometry x="620" y="140" width="40" height="40" as="geometry"/>
                </mxCell>
                <mxCell id="180" value="9" style="shape=waypoint;sketch=0;fillStyle=solid;size=6;pointerEvents=1;points=[];fillColor=none;resizable=0;rotatable=0;perimeter=centerPerimeter;snapToPoint=1;verticalAlign=top;align=left;fontStyle=0;horizontal=1;spacing=2;spacingTop=2;spacingLeft=8;" vertex="1" parent="158">
                    <mxGeometry x="660" y="140" width="40" height="40" as="geometry"/>
                </mxCell>
                <mxCell id="181" value="9" style="shape=waypoint;sketch=0;fillStyle=solid;size=6;pointerEvents=1;points=[];fillColor=none;resizable=0;rotatable=0;perimeter=centerPerimeter;snapToPoint=1;verticalAlign=top;align=left;fontStyle=0;horizontal=1;spacing=2;spacingTop=2;spacingLeft=8;" vertex="1" parent="158">
                    <mxGeometry x="340" y="180" width="40" height="40" as="geometry"/>
                </mxCell>
                <mxCell id="182" value="1" style="shape=waypoint;sketch=0;fillStyle=solid;size=6;pointerEvents=1;points=[];fillColor=none;resizable=0;rotatable=0;perimeter=centerPerimeter;snapToPoint=1;verticalAlign=top;align=left;fontStyle=0;horizontal=1;spacing=2;spacingTop=2;spacingLeft=8;" vertex="1" parent="158">
                    <mxGeometry x="380" y="180" width="40" height="40" as="geometry"/>
                </mxCell>
                <mxCell id="183" value="2" style="shape=waypoint;sketch=0;fillStyle=solid;size=6;pointerEvents=1;points=[];fillColor=none;resizable=0;rotatable=0;perimeter=centerPerimeter;snapToPoint=1;verticalAlign=top;align=left;fontStyle=0;horizontal=1;spacing=2;spacingTop=2;spacingLeft=8;" vertex="1" parent="158">
                    <mxGeometry x="420" y="180" width="40" height="40" as="geometry"/>
                </mxCell>
                <mxCell id="184" value="3" style="shape=waypoint;sketch=0;fillStyle=solid;size=6;pointerEvents=1;points=[];fillColor=none;resizable=0;rotatable=0;perimeter=centerPerimeter;snapToPoint=1;verticalAlign=top;align=left;fontStyle=0;horizontal=1;spacing=2;spacingTop=2;spacingLeft=8;" vertex="1" parent="158">
                    <mxGeometry x="460" y="180" width="40" height="40" as="geometry"/>
                </mxCell>
                <mxCell id="185" value="4" style="shape=waypoint;sketch=0;fillStyle=solid;size=6;pointerEvents=1;points=[];fillColor=none;resizable=0;rotatable=0;perimeter=centerPerimeter;snapToPoint=1;verticalAlign=top;align=left;fontStyle=0;horizontal=1;spacing=2;spacingTop=2;spacingLeft=8;" vertex="1" parent="158">
                    <mxGeometry x="500" y="180" width="40" height="40" as="geometry"/>
                </mxCell>
                <mxCell id="186" value="5" style="shape=waypoint;sketch=0;fillStyle=solid;size=6;pointerEvents=1;points=[];fillColor=none;resizable=0;rotatable=0;perimeter=centerPerimeter;snapToPoint=1;verticalAlign=top;align=left;fontStyle=0;horizontal=1;spacing=2;spacingTop=2;spacingLeft=8;" vertex="1" parent="158">
                    <mxGeometry x="540" y="180" width="40" height="40" as="geometry"/>
                </mxCell>
                <mxCell id="187" value="6" style="shape=waypoint;sketch=0;fillStyle=solid;size=6;pointerEvents=1;points=[];fillColor=none;resizable=0;rotatable=0;perimeter=centerPerimeter;snapToPoint=1;verticalAlign=top;align=left;fontStyle=0;horizontal=1;spacing=2;spacingTop=2;spacingLeft=8;" vertex="1" parent="158">
                    <mxGeometry x="580" y="180" width="40" height="40" as="geometry"/>
                </mxCell>
                <mxCell id="188" value="7" style="shape=waypoint;sketch=0;fillStyle=solid;size=6;pointerEvents=1;points=[];fillColor=none;resizable=0;rotatable=0;perimeter=centerPerimeter;snapToPoint=1;verticalAlign=top;align=left;fontStyle=0;horizontal=1;spacing=2;spacingTop=2;spacingLeft=8;" vertex="1" parent="158">
                    <mxGeometry x="620" y="180" width="40" height="40" as="geometry"/>
                </mxCell>
                <mxCell id="189" value="8" style="shape=waypoint;sketch=0;fillStyle=solid;size=6;pointerEvents=1;points=[];fillColor=none;resizable=0;rotatable=0;perimeter=centerPerimeter;snapToPoint=1;verticalAlign=top;align=left;fontStyle=0;horizontal=1;spacing=2;spacingTop=2;spacingLeft=8;" vertex="1" parent="158">
                    <mxGeometry x="660" y="180" width="40" height="40" as="geometry"/>
                </mxCell>
                <mxCell id="190" value="8" style="shape=waypoint;sketch=0;fillStyle=solid;size=6;pointerEvents=1;points=[];fillColor=none;resizable=0;rotatable=0;perimeter=centerPerimeter;snapToPoint=1;verticalAlign=top;align=left;fontStyle=0;horizontal=1;spacing=2;spacingTop=2;spacingLeft=8;" vertex="1" parent="158">
                    <mxGeometry x="340" y="220" width="40" height="40" as="geometry"/>
                </mxCell>
                <mxCell id="191" value="1" style="shape=waypoint;sketch=0;fillStyle=solid;size=6;pointerEvents=1;points=[];fillColor=none;resizable=0;rotatable=0;perimeter=centerPerimeter;snapToPoint=1;verticalAlign=top;align=left;fontStyle=0;horizontal=1;spacing=2;spacingTop=2;spacingLeft=8;" vertex="1" parent="158">
                    <mxGeometry x="380" y="220" width="40" height="40" as="geometry"/>
                </mxCell>
                <mxCell id="192" value="2" style="shape=waypoint;sketch=0;fillStyle=solid;size=6;pointerEvents=1;points=[];fillColor=none;resizable=0;rotatable=0;perimeter=centerPerimeter;snapToPoint=1;verticalAlign=top;align=left;fontStyle=0;horizontal=1;spacing=2;spacingTop=2;spacingLeft=8;" vertex="1" parent="158">
                    <mxGeometry x="420" y="220" width="40" height="40" as="geometry"/>
                </mxCell>
                <mxCell id="193" value="3" style="shape=waypoint;sketch=0;fillStyle=solid;size=6;pointerEvents=1;points=[];fillColor=none;resizable=0;rotatable=0;perimeter=centerPerimeter;snapToPoint=1;verticalAlign=top;align=left;fontStyle=0;horizontal=1;spacing=2;spacingTop=2;spacingLeft=8;" vertex="1" parent="158">
                    <mxGeometry x="460" y="220" width="40" height="40" as="geometry"/>
                </mxCell>
                <mxCell id="194" value="4" style="shape=waypoint;sketch=0;fillStyle=solid;size=6;pointerEvents=1;points=[];fillColor=none;resizable=0;rotatable=0;perimeter=centerPerimeter;snapToPoint=1;verticalAlign=top;align=left;fontStyle=0;horizontal=1;spacing=2;spacingTop=2;spacingLeft=8;" vertex="1" parent="158">
                    <mxGeometry x="500" y="220" width="40" height="40" as="geometry"/>
                </mxCell>
                <mxCell id="195" value="5" style="shape=waypoint;sketch=0;fillStyle=solid;size=6;pointerEvents=1;points=[];fillColor=none;resizable=0;rotatable=0;perimeter=centerPerimeter;snapToPoint=1;verticalAlign=top;align=left;fontStyle=0;horizontal=1;spacing=2;spacingTop=2;spacingLeft=8;" vertex="1" parent="158">
                    <mxGeometry x="540" y="220" width="40" height="40" as="geometry"/>
                </mxCell>
                <mxCell id="196" value="6" style="shape=waypoint;sketch=0;fillStyle=solid;size=6;pointerEvents=1;points=[];fillColor=none;resizable=0;rotatable=0;perimeter=centerPerimeter;snapToPoint=1;verticalAlign=top;align=left;fontStyle=0;horizontal=1;spacing=2;spacingTop=2;spacingLeft=8;" vertex="1" parent="158">
                    <mxGeometry x="580" y="220" width="40" height="40" as="geometry"/>
                </mxCell>
                <mxCell id="197" value="7" style="shape=waypoint;sketch=0;fillStyle=solid;size=6;pointerEvents=1;points=[];fillColor=none;resizable=0;rotatable=0;perimeter=centerPerimeter;snapToPoint=1;verticalAlign=top;align=left;fontStyle=0;horizontal=1;spacing=2;spacingTop=2;spacingLeft=8;" vertex="1" parent="158">
                    <mxGeometry x="620" y="220" width="40" height="40" as="geometry"/>
                </mxCell>
                <mxCell id="198" value="9" style="shape=waypoint;sketch=0;fillStyle=solid;size=6;pointerEvents=1;points=[];fillColor=none;resizable=0;rotatable=0;perimeter=centerPerimeter;snapToPoint=1;verticalAlign=top;align=left;fontStyle=0;horizontal=1;spacing=2;spacingTop=2;spacingLeft=8;" vertex="1" parent="158">
                    <mxGeometry x="660" y="220" width="40" height="40" as="geometry"/>
                </mxCell>
                <mxCell id="199" value="7" style="shape=waypoint;sketch=0;fillStyle=solid;size=6;pointerEvents=1;points=[];fillColor=none;resizable=0;rotatable=0;perimeter=centerPerimeter;snapToPoint=1;verticalAlign=top;align=left;fontStyle=0;horizontal=1;spacing=2;spacingTop=2;spacingLeft=8;" vertex="1" parent="158">
                    <mxGeometry x="340" y="260" width="40" height="40" as="geometry"/>
                </mxCell>
                <mxCell id="200" value="9" style="shape=waypoint;sketch=0;fillStyle=solid;size=6;pointerEvents=1;points=[];fillColor=none;resizable=0;rotatable=0;perimeter=centerPerimeter;snapToPoint=1;verticalAlign=top;align=left;fontStyle=0;horizontal=1;spacing=2;spacingTop=2;spacingLeft=8;" vertex="1" parent="158">
                    <mxGeometry x="380" y="260" width="40" height="40" as="geometry"/>
                </mxCell>
                <mxCell id="201" value="3" style="shape=waypoint;sketch=0;fillStyle=solid;size=6;pointerEvents=1;points=[];fillColor=none;resizable=0;rotatable=0;perimeter=centerPerimeter;snapToPoint=1;verticalAlign=top;align=left;fontStyle=0;horizontal=1;spacing=2;spacingTop=2;spacingLeft=8;" vertex="1" parent="158">
                    <mxGeometry x="420" y="260" width="40" height="40" as="geometry"/>
                </mxCell>
                <mxCell id="202" value="4" style="shape=waypoint;sketch=0;fillStyle=solid;size=6;pointerEvents=1;points=[];fillColor=none;resizable=0;rotatable=0;perimeter=centerPerimeter;snapToPoint=1;verticalAlign=top;align=left;fontStyle=0;horizontal=1;spacing=2;spacingTop=2;spacingLeft=8;" vertex="1" parent="158">
                    <mxGeometry x="460" y="260" width="40" height="40" as="geometry"/>
                </mxCell>
                <mxCell id="203" value="5" style="shape=waypoint;sketch=0;fillStyle=solid;size=6;pointerEvents=1;points=[];fillColor=none;resizable=0;rotatable=0;perimeter=centerPerimeter;snapToPoint=1;verticalAlign=top;align=left;fontStyle=0;horizontal=1;spacing=2;spacingTop=2;spacingLeft=8;" vertex="1" parent="158">
                    <mxGeometry x="500" y="260" width="40" height="40" as="geometry"/>
                </mxCell>
                <mxCell id="204" value="6" style="shape=waypoint;sketch=0;fillStyle=solid;size=6;pointerEvents=1;points=[];fillColor=none;resizable=0;rotatable=0;perimeter=centerPerimeter;snapToPoint=1;verticalAlign=top;align=left;fontStyle=0;horizontal=1;spacing=2;spacingTop=2;spacingLeft=8;" vertex="1" parent="158">
                    <mxGeometry x="540" y="260" width="40" height="40" as="geometry"/>
                </mxCell>
                <mxCell id="205" value="7" style="shape=waypoint;sketch=0;fillStyle=solid;size=6;pointerEvents=1;points=[];fillColor=none;resizable=0;rotatable=0;perimeter=centerPerimeter;snapToPoint=1;verticalAlign=top;align=left;fontStyle=0;horizontal=1;spacing=2;spacingTop=2;spacingLeft=8;" vertex="1" parent="158">
                    <mxGeometry x="580" y="260" width="40" height="40" as="geometry"/>
                </mxCell>
                <mxCell id="206" value="8" style="shape=waypoint;sketch=0;fillStyle=solid;size=6;pointerEvents=1;points=[];fillColor=none;resizable=0;rotatable=0;perimeter=centerPerimeter;snapToPoint=1;verticalAlign=top;align=left;fontStyle=0;horizontal=1;spacing=2;spacingTop=2;spacingLeft=8;" vertex="1" parent="158">
                    <mxGeometry x="620" y="260" width="40" height="40" as="geometry"/>
                </mxCell>
                <mxCell id="207" value="1" style="shape=waypoint;sketch=0;fillStyle=solid;size=6;pointerEvents=1;points=[];fillColor=none;resizable=0;rotatable=0;perimeter=centerPerimeter;snapToPoint=1;verticalAlign=top;align=left;fontStyle=0;horizontal=1;spacing=2;spacingTop=2;spacingLeft=8;" vertex="1" parent="158">
                    <mxGeometry x="660" y="260" width="40" height="40" as="geometry"/>
                </mxCell>
                <mxCell id="208" value="6" style="shape=waypoint;sketch=0;fillStyle=solid;size=6;pointerEvents=1;points=[];fillColor=none;resizable=0;rotatable=0;perimeter=centerPerimeter;snapToPoint=1;verticalAlign=top;align=left;fontStyle=0;horizontal=1;spacing=2;spacingTop=2;spacingLeft=8;" vertex="1" parent="158">
                    <mxGeometry x="340" y="300" width="40" height="40" as="geometry"/>
                </mxCell>
                <mxCell id="209" value="8" style="shape=waypoint;sketch=0;fillStyle=solid;size=6;pointerEvents=1;points=[];fillColor=none;resizable=0;rotatable=0;perimeter=centerPerimeter;snapToPoint=1;verticalAlign=top;align=left;fontStyle=0;horizontal=1;spacing=2;spacingTop=2;spacingLeft=8;" vertex="1" parent="158">
                    <mxGeometry x="380" y="300" width="40" height="40" as="geometry"/>
                </mxCell>
                <mxCell id="210" value="2" style="shape=waypoint;sketch=0;fillStyle=solid;size=6;pointerEvents=1;points=[];fillColor=none;resizable=0;rotatable=0;perimeter=centerPerimeter;snapToPoint=1;verticalAlign=top;align=left;fontStyle=0;horizontal=1;spacing=2;spacingTop=2;spacingLeft=8;" vertex="1" parent="158">
                    <mxGeometry x="420" y="300" width="40" height="40" as="geometry"/>
                </mxCell>
                <mxCell id="211" value="6" style="shape=waypoint;sketch=0;fillStyle=solid;size=6;pointerEvents=1;points=[];fillColor=none;resizable=0;rotatable=0;perimeter=centerPerimeter;snapToPoint=1;verticalAlign=top;align=left;fontStyle=0;horizontal=1;spacing=2;spacingTop=2;spacingLeft=8;" vertex="1" parent="158">
                    <mxGeometry x="460" y="300" width="40" height="40" as="geometry"/>
                </mxCell>
                <mxCell id="212" value="7" style="shape=waypoint;sketch=0;fillStyle=solid;size=6;pointerEvents=1;points=[];fillColor=none;resizable=0;rotatable=0;perimeter=centerPerimeter;snapToPoint=1;verticalAlign=top;align=left;fontStyle=0;horizontal=1;spacing=2;spacingTop=2;spacingLeft=8;" vertex="1" parent="158">
                    <mxGeometry x="500" y="300" width="40" height="40" as="geometry"/>
                </mxCell>
                <mxCell id="213" value="8" style="shape=waypoint;sketch=0;fillStyle=solid;size=6;pointerEvents=1;points=[];fillColor=none;resizable=0;rotatable=0;perimeter=centerPerimeter;snapToPoint=1;verticalAlign=top;align=left;fontStyle=0;horizontal=1;spacing=2;spacingTop=2;spacingLeft=8;" vertex="1" parent="158">
                    <mxGeometry x="540" y="300" width="40" height="40" as="geometry"/>
                </mxCell>
                <mxCell id="214" value="8" style="shape=waypoint;sketch=0;fillStyle=solid;size=6;pointerEvents=1;points=[];fillColor=none;resizable=0;rotatable=0;perimeter=centerPerimeter;snapToPoint=1;verticalAlign=top;align=left;fontStyle=0;horizontal=1;spacing=2;spacingTop=2;spacingLeft=8;" vertex="1" parent="158">
                    <mxGeometry x="580" y="300" width="40" height="40" as="geometry"/>
                </mxCell>
                <mxCell id="215" value="9" style="shape=waypoint;sketch=0;fillStyle=solid;size=6;pointerEvents=1;points=[];fillColor=none;resizable=0;rotatable=0;perimeter=centerPerimeter;snapToPoint=1;verticalAlign=top;align=left;fontStyle=0;horizontal=1;spacing=2;spacingTop=2;spacingLeft=8;" vertex="1" parent="158">
                    <mxGeometry x="620" y="300" width="40" height="40" as="geometry"/>
                </mxCell>
                <mxCell id="216" value="2" style="shape=waypoint;sketch=0;fillStyle=solid;size=6;pointerEvents=1;points=[];fillColor=none;resizable=0;rotatable=0;perimeter=centerPerimeter;snapToPoint=1;verticalAlign=top;align=left;fontStyle=0;horizontal=1;spacing=2;spacingTop=2;spacingLeft=8;" vertex="1" parent="158">
                    <mxGeometry x="700" y="180" width="40" height="40" as="geometry"/>
                </mxCell>
                <mxCell id="217" value="5" style="shape=waypoint;sketch=0;fillStyle=solid;size=6;pointerEvents=1;points=[];fillColor=none;resizable=0;rotatable=0;perimeter=centerPerimeter;snapToPoint=1;verticalAlign=top;align=left;fontStyle=0;horizontal=1;spacing=2;spacingTop=2;spacingLeft=8;" vertex="1" parent="158">
                    <mxGeometry x="340" y="340" width="40" height="40" as="geometry"/>
                </mxCell>
                <mxCell id="218" value="7" style="shape=waypoint;sketch=0;fillStyle=solid;size=6;pointerEvents=1;points=[];fillColor=none;resizable=0;rotatable=0;perimeter=centerPerimeter;snapToPoint=1;verticalAlign=top;align=left;fontStyle=0;horizontal=1;spacing=2;spacingTop=2;spacingLeft=8;" vertex="1" parent="158">
                    <mxGeometry x="380" y="340" width="40" height="40" as="geometry"/>
                </mxCell>
                <mxCell id="219" value="1" style="shape=waypoint;sketch=0;fillStyle=solid;size=6;pointerEvents=1;points=[];fillColor=none;resizable=0;rotatable=0;perimeter=centerPerimeter;snapToPoint=1;verticalAlign=top;align=left;fontStyle=0;horizontal=1;spacing=2;spacingTop=2;spacingLeft=8;" vertex="1" parent="158">
                    <mxGeometry x="420" y="340" width="40" height="40" as="geometry"/>
                </mxCell>
                <mxCell id="220" value="5" style="shape=waypoint;sketch=0;fillStyle=solid;size=6;pointerEvents=1;points=[];fillColor=none;resizable=0;rotatable=0;perimeter=centerPerimeter;snapToPoint=1;verticalAlign=top;align=left;fontStyle=0;horizontal=1;spacing=2;spacingTop=2;spacingLeft=8;" vertex="1" parent="158">
                    <mxGeometry x="460" y="340" width="40" height="40" as="geometry"/>
                </mxCell>
                <mxCell id="221" value="1" style="shape=waypoint;sketch=0;fillStyle=solid;size=6;pointerEvents=1;points=[];fillColor=none;resizable=0;rotatable=0;perimeter=centerPerimeter;snapToPoint=1;verticalAlign=top;align=left;fontStyle=0;horizontal=1;spacing=2;spacingTop=2;spacingLeft=8;" vertex="1" parent="158">
                    <mxGeometry x="500" y="340" width="40" height="40" as="geometry"/>
                </mxCell>
                <mxCell id="222" value="9" style="shape=waypoint;sketch=0;fillStyle=solid;size=6;pointerEvents=1;points=[];fillColor=none;resizable=0;rotatable=0;perimeter=centerPerimeter;snapToPoint=1;verticalAlign=top;align=left;fontStyle=0;horizontal=1;spacing=2;spacingTop=2;spacingLeft=8;" vertex="1" parent="158">
                    <mxGeometry x="540" y="340" width="40" height="40" as="geometry"/>
                </mxCell>
                <mxCell id="223" value="9" style="shape=waypoint;sketch=0;fillStyle=solid;size=6;pointerEvents=1;points=[];fillColor=none;resizable=0;rotatable=0;perimeter=centerPerimeter;snapToPoint=1;verticalAlign=top;align=left;fontStyle=0;horizontal=1;spacing=2;spacingTop=2;spacingLeft=8;" vertex="1" parent="158">
                    <mxGeometry x="580" y="340" width="40" height="40" as="geometry"/>
                </mxCell>
                <mxCell id="224" value="1" style="shape=waypoint;sketch=0;fillStyle=solid;size=6;pointerEvents=1;points=[];fillColor=none;resizable=0;rotatable=0;perimeter=centerPerimeter;snapToPoint=1;verticalAlign=top;align=left;fontStyle=0;horizontal=1;spacing=2;spacingTop=2;spacingLeft=8;" vertex="1" parent="158">
                    <mxGeometry x="620" y="340" width="40" height="40" as="geometry"/>
                </mxCell>
                <mxCell id="225" value="3" style="shape=waypoint;sketch=0;fillStyle=solid;size=6;pointerEvents=1;points=[];fillColor=none;resizable=0;rotatable=0;perimeter=centerPerimeter;snapToPoint=1;verticalAlign=top;align=left;fontStyle=0;horizontal=1;spacing=2;spacingTop=2;spacingLeft=8;" vertex="1" parent="158">
                    <mxGeometry x="700" y="220" width="40" height="40" as="geometry"/>
                </mxCell>
                <mxCell id="226" value="4" style="shape=waypoint;sketch=0;fillStyle=solid;size=6;pointerEvents=1;points=[];fillColor=none;resizable=0;rotatable=0;perimeter=centerPerimeter;snapToPoint=1;verticalAlign=top;align=left;fontStyle=0;horizontal=1;spacing=2;spacingTop=2;spacingLeft=8;" vertex="1" parent="158">
                    <mxGeometry x="340" y="380" width="40" height="40" as="geometry"/>
                </mxCell>
                <mxCell id="227" value="6" style="shape=waypoint;sketch=0;fillStyle=solid;size=6;pointerEvents=1;points=[];fillColor=none;resizable=0;rotatable=0;perimeter=centerPerimeter;snapToPoint=1;verticalAlign=top;align=left;fontStyle=0;horizontal=1;spacing=2;spacingTop=2;spacingLeft=8;" vertex="1" parent="158">
                    <mxGeometry x="380" y="380" width="40" height="40" as="geometry"/>
                </mxCell>
                <mxCell id="228" value="9" style="shape=waypoint;sketch=0;fillStyle=solid;size=6;pointerEvents=1;points=[];fillColor=none;resizable=0;rotatable=0;perimeter=centerPerimeter;snapToPoint=1;verticalAlign=top;align=left;fontStyle=0;horizontal=1;spacing=2;spacingTop=2;spacingLeft=8;" vertex="1" parent="158">
                    <mxGeometry x="420" y="380" width="40" height="40" as="geometry"/>
                </mxCell>
                <mxCell id="229" value="4" style="shape=waypoint;sketch=0;fillStyle=solid;size=6;pointerEvents=1;points=[];fillColor=none;resizable=0;rotatable=0;perimeter=centerPerimeter;snapToPoint=1;verticalAlign=top;align=left;fontStyle=0;horizontal=1;spacing=2;spacingTop=2;spacingLeft=8;" vertex="1" parent="158">
                    <mxGeometry x="460" y="380" width="40" height="40" as="geometry"/>
                </mxCell>
                <mxCell id="230" value="3" style="shape=waypoint;sketch=0;fillStyle=solid;size=6;pointerEvents=1;points=[];fillColor=none;resizable=0;rotatable=0;perimeter=centerPerimeter;snapToPoint=1;verticalAlign=top;align=left;fontStyle=0;horizontal=1;spacing=2;spacingTop=2;spacingLeft=8;" vertex="1" parent="158">
                    <mxGeometry x="500" y="380" width="40" height="40" as="geometry"/>
                </mxCell>
                <mxCell id="231" value="2" style="shape=waypoint;sketch=0;fillStyle=solid;size=6;pointerEvents=1;points=[];fillColor=none;resizable=0;rotatable=0;perimeter=centerPerimeter;snapToPoint=1;verticalAlign=top;align=left;fontStyle=0;horizontal=1;spacing=2;spacingTop=2;spacingLeft=8;" vertex="1" parent="158">
                    <mxGeometry x="540" y="380" width="40" height="40" as="geometry"/>
                </mxCell>
                <mxCell id="232" value="1" style="shape=waypoint;sketch=0;fillStyle=solid;size=6;pointerEvents=1;points=[];fillColor=none;resizable=0;rotatable=0;perimeter=centerPerimeter;snapToPoint=1;verticalAlign=top;align=left;fontStyle=0;horizontal=1;spacing=2;spacingTop=2;spacingLeft=8;" vertex="1" parent="158">
                    <mxGeometry x="580" y="380" width="40" height="40" as="geometry"/>
                </mxCell>
                <mxCell id="233" value="2" style="shape=waypoint;sketch=0;fillStyle=solid;size=6;pointerEvents=1;points=[];fillColor=none;resizable=0;rotatable=0;perimeter=centerPerimeter;snapToPoint=1;verticalAlign=top;align=left;fontStyle=0;horizontal=1;spacing=2;spacingTop=2;spacingLeft=8;" vertex="1" parent="158">
                    <mxGeometry x="620" y="380" width="40" height="40" as="geometry"/>
                </mxCell>
                <mxCell id="234" value="4" style="shape=waypoint;sketch=0;fillStyle=solid;size=6;pointerEvents=1;points=[];fillColor=none;resizable=0;rotatable=0;perimeter=centerPerimeter;snapToPoint=1;verticalAlign=top;align=left;fontStyle=0;horizontal=1;spacing=2;spacingTop=2;spacingLeft=8;" vertex="1" parent="158">
                    <mxGeometry x="700" y="260" width="40" height="40" as="geometry"/>
                </mxCell>
                <mxCell id="235" value="3" style="shape=waypoint;sketch=0;fillStyle=solid;size=6;pointerEvents=1;points=[];fillColor=none;resizable=0;rotatable=0;perimeter=centerPerimeter;snapToPoint=1;verticalAlign=top;align=left;fontStyle=0;horizontal=1;spacing=2;spacingTop=2;spacingLeft=8;" vertex="1" parent="158">
                    <mxGeometry x="340" y="420" width="40" height="40" as="geometry"/>
                </mxCell>
                <mxCell id="236" value="5" style="shape=waypoint;sketch=0;fillStyle=solid;size=6;pointerEvents=1;points=[];fillColor=none;resizable=0;rotatable=0;perimeter=centerPerimeter;snapToPoint=1;verticalAlign=top;align=left;fontStyle=0;horizontal=1;spacing=2;spacingTop=2;spacingLeft=8;" vertex="1" parent="158">
                    <mxGeometry x="380" y="420" width="40" height="40" as="geometry"/>
                </mxCell>
                <mxCell id="237" value="8" style="shape=waypoint;sketch=0;fillStyle=solid;size=6;pointerEvents=1;points=[];fillColor=none;resizable=0;rotatable=0;perimeter=centerPerimeter;snapToPoint=1;verticalAlign=top;align=left;fontStyle=0;horizontal=1;spacing=2;spacingTop=2;spacingLeft=8;" vertex="1" parent="158">
                    <mxGeometry x="420" y="420" width="40" height="40" as="geometry"/>
                </mxCell>
                <mxCell id="238" value="7" style="shape=waypoint;sketch=0;fillStyle=solid;size=6;pointerEvents=1;points=[];fillColor=none;resizable=0;rotatable=0;perimeter=centerPerimeter;snapToPoint=1;verticalAlign=top;align=left;fontStyle=0;horizontal=1;spacing=2;spacingTop=2;spacingLeft=8;" vertex="1" parent="158">
                    <mxGeometry x="460" y="420" width="40" height="40" as="geometry"/>
                </mxCell>
                <mxCell id="239" value="6" style="shape=waypoint;sketch=0;fillStyle=solid;size=6;pointerEvents=1;points=[];fillColor=none;resizable=0;rotatable=0;perimeter=centerPerimeter;snapToPoint=1;verticalAlign=top;align=left;fontStyle=0;horizontal=1;spacing=2;spacingTop=2;spacingLeft=8;" vertex="1" parent="158">
                    <mxGeometry x="500" y="420" width="40" height="40" as="geometry"/>
                </mxCell>
                <mxCell id="240" value="5" style="shape=waypoint;sketch=0;fillStyle=solid;size=6;pointerEvents=1;points=[];fillColor=none;resizable=0;rotatable=0;perimeter=centerPerimeter;snapToPoint=1;verticalAlign=top;align=left;fontStyle=0;horizontal=1;spacing=2;spacingTop=2;spacingLeft=8;" vertex="1" parent="158">
                    <mxGeometry x="540" y="420" width="40" height="40" as="geometry"/>
                </mxCell>
                <mxCell id="241" value="4" style="shape=waypoint;sketch=0;fillStyle=solid;size=6;pointerEvents=1;points=[];fillColor=none;resizable=0;rotatable=0;perimeter=centerPerimeter;snapToPoint=1;verticalAlign=top;align=left;fontStyle=0;horizontal=1;spacing=2;spacingTop=2;spacingLeft=8;" vertex="1" parent="158">
                    <mxGeometry x="580" y="420" width="40" height="40" as="geometry"/>
                </mxCell>
                <mxCell id="242" value="3" style="shape=waypoint;sketch=0;fillStyle=solid;size=6;pointerEvents=1;points=[];fillColor=none;resizable=0;rotatable=0;perimeter=centerPerimeter;snapToPoint=1;verticalAlign=top;align=left;fontStyle=0;horizontal=1;spacing=2;spacingTop=2;spacingLeft=8;" vertex="1" parent="158">
                    <mxGeometry x="620" y="420" width="40" height="40" as="geometry"/>
                </mxCell>
                <mxCell id="243" value="5" style="shape=waypoint;sketch=0;fillStyle=solid;size=6;pointerEvents=1;points=[];fillColor=none;resizable=0;rotatable=0;perimeter=centerPerimeter;snapToPoint=1;verticalAlign=top;align=left;fontStyle=0;horizontal=1;spacing=2;spacingTop=2;spacingLeft=8;" vertex="1" parent="158">
                    <mxGeometry x="700" y="300" width="40" height="40" as="geometry"/>
                </mxCell>
                <mxCell id="244" value="2" style="shape=waypoint;sketch=0;fillStyle=solid;size=6;pointerEvents=1;points=[];fillColor=none;resizable=0;rotatable=0;perimeter=centerPerimeter;snapToPoint=1;verticalAlign=top;align=left;fontStyle=0;horizontal=1;spacing=2;spacingTop=2;spacingLeft=8;" vertex="1" parent="158">
                    <mxGeometry x="340" y="460" width="40" height="40" as="geometry"/>
                </mxCell>
                <mxCell id="245" value="4" style="shape=waypoint;sketch=0;fillStyle=solid;size=6;pointerEvents=1;points=[];fillColor=none;resizable=0;rotatable=0;perimeter=centerPerimeter;snapToPoint=1;verticalAlign=top;align=left;fontStyle=0;horizontal=1;spacing=2;spacingTop=2;spacingLeft=8;" vertex="1" parent="158">
                    <mxGeometry x="380" y="460" width="40" height="40" as="geometry"/>
                </mxCell>
                <mxCell id="246" value="3" style="shape=waypoint;sketch=0;fillStyle=solid;size=6;pointerEvents=1;points=[];fillColor=none;resizable=0;rotatable=0;perimeter=centerPerimeter;snapToPoint=1;verticalAlign=top;align=left;fontStyle=0;horizontal=1;spacing=2;spacingTop=2;spacingLeft=8;" vertex="1" parent="158">
                    <mxGeometry x="420" y="460" width="40" height="40" as="geometry"/>
                </mxCell>
                <mxCell id="247" value="2" style="shape=waypoint;sketch=0;fillStyle=solid;size=6;pointerEvents=1;points=[];fillColor=none;resizable=0;rotatable=0;perimeter=centerPerimeter;snapToPoint=1;verticalAlign=top;align=left;fontStyle=0;horizontal=1;spacing=2;spacingTop=2;spacingLeft=8;" vertex="1" parent="158">
                    <mxGeometry x="460" y="460" width="40" height="40" as="geometry"/>
                </mxCell>
                <mxCell id="248" value="1" style="shape=waypoint;sketch=0;fillStyle=solid;size=6;pointerEvents=1;points=[];fillColor=none;resizable=0;rotatable=0;perimeter=centerPerimeter;snapToPoint=1;verticalAlign=top;align=left;fontStyle=0;horizontal=1;spacing=2;spacingTop=2;spacingLeft=8;" vertex="1" parent="158">
                    <mxGeometry x="500" y="460" width="40" height="40" as="geometry"/>
                </mxCell>
                <mxCell id="249" value="9" style="shape=waypoint;sketch=0;fillStyle=solid;size=6;pointerEvents=1;points=[];fillColor=none;resizable=0;rotatable=0;perimeter=centerPerimeter;snapToPoint=1;verticalAlign=top;align=left;fontStyle=0;horizontal=1;spacing=2;spacingTop=2;spacingLeft=8;" vertex="1" parent="158">
                    <mxGeometry x="540" y="460" width="40" height="40" as="geometry"/>
                </mxCell>
                <mxCell id="250" value="8" style="shape=waypoint;sketch=0;fillStyle=solid;size=6;pointerEvents=1;points=[];fillColor=none;resizable=0;rotatable=0;perimeter=centerPerimeter;snapToPoint=1;verticalAlign=top;align=left;fontStyle=0;horizontal=1;spacing=2;spacingTop=2;spacingLeft=8;" vertex="1" parent="158">
                    <mxGeometry x="580" y="460" width="40" height="40" as="geometry"/>
                </mxCell>
                <mxCell id="251" value="7" style="shape=waypoint;sketch=0;fillStyle=solid;size=6;pointerEvents=1;points=[];fillColor=none;resizable=0;rotatable=0;perimeter=centerPerimeter;snapToPoint=1;verticalAlign=top;align=left;fontStyle=0;horizontal=1;spacing=2;spacingTop=2;spacingLeft=8;" vertex="1" parent="158">
                    <mxGeometry x="620" y="460" width="40" height="40" as="geometry"/>
                </mxCell>
                <mxCell id="252" value="6" style="shape=waypoint;sketch=0;fillStyle=solid;size=6;pointerEvents=1;points=[];fillColor=none;resizable=0;rotatable=0;perimeter=centerPerimeter;snapToPoint=1;verticalAlign=top;align=left;fontStyle=0;horizontal=1;spacing=2;spacingTop=2;spacingLeft=8;" vertex="1" parent="158">
                    <mxGeometry x="700" y="340" width="40" height="40" as="geometry"/>
                </mxCell>
                <mxCell id="253" value="1" style="shape=waypoint;sketch=0;fillStyle=solid;size=6;pointerEvents=1;points=[];fillColor=none;resizable=0;rotatable=0;perimeter=centerPerimeter;snapToPoint=1;fontSize=12;align=left;verticalAlign=top;fontStyle=0;horizontal=1;spacing=2;spacingTop=2;spacingLeft=8;" vertex="1" parent="158">
                    <mxGeometry x="700" y="140" width="40" height="40" as="geometry"/>
                </mxCell>
                <mxCell id="265" value="7" style="shape=waypoint;sketch=0;fillStyle=solid;size=6;pointerEvents=1;points=[];fillColor=none;resizable=0;rotatable=0;perimeter=centerPerimeter;snapToPoint=1;verticalAlign=top;align=left;fontStyle=0;horizontal=1;spacing=2;spacingTop=2;spacingLeft=8;" vertex="1" parent="158">
                    <mxGeometry x="700" y="380" width="40" height="40" as="geometry"/>
                </mxCell>
                <mxCell id="266" value="9" style="shape=waypoint;sketch=0;fillStyle=solid;size=6;pointerEvents=1;points=[];fillColor=none;resizable=0;rotatable=0;perimeter=centerPerimeter;snapToPoint=1;verticalAlign=top;align=left;fontStyle=0;horizontal=1;spacing=2;spacingTop=2;spacingLeft=8;" vertex="1" parent="158">
                    <mxGeometry x="700" y="460" width="40" height="40" as="geometry"/>
                </mxCell>
                <mxCell id="267" value="8" style="shape=waypoint;sketch=0;fillStyle=solid;size=6;pointerEvents=1;points=[];fillColor=none;resizable=0;rotatable=0;perimeter=centerPerimeter;snapToPoint=1;verticalAlign=top;align=left;fontStyle=0;horizontal=1;spacing=2;spacingTop=2;spacingLeft=8;" vertex="1" parent="158">
                    <mxGeometry x="700" y="420" width="40" height="40" as="geometry"/>
                </mxCell>
                <mxCell id="268" value="1" style="shape=waypoint;sketch=0;fillStyle=solid;size=6;pointerEvents=1;points=[];fillColor=none;resizable=0;rotatable=0;perimeter=centerPerimeter;snapToPoint=1;verticalAlign=top;align=left;fontStyle=0;horizontal=1;spacing=2;spacingTop=2;spacingLeft=8;" vertex="1" parent="158">
                    <mxGeometry x="700" y="500" width="40" height="40" as="geometry"/>
                </mxCell>
                <mxCell id="269" value="2" style="shape=waypoint;sketch=0;fillStyle=solid;size=6;pointerEvents=1;points=[];fillColor=none;resizable=0;rotatable=0;perimeter=centerPerimeter;snapToPoint=1;verticalAlign=top;align=left;fontStyle=0;horizontal=1;spacing=2;spacingTop=2;spacingLeft=8;" vertex="1" parent="158">
                    <mxGeometry x="660" y="500" width="40" height="40" as="geometry"/>
                </mxCell>
                <mxCell id="270" value="3" style="shape=waypoint;sketch=0;fillStyle=solid;size=6;pointerEvents=1;points=[];fillColor=none;resizable=0;rotatable=0;perimeter=centerPerimeter;snapToPoint=1;verticalAlign=top;align=left;fontStyle=0;horizontal=1;spacing=2;spacingTop=2;spacingLeft=8;" vertex="1" parent="158">
                    <mxGeometry x="620" y="500" width="40" height="40" as="geometry"/>
                </mxCell>
                <mxCell id="271" value="4" style="shape=waypoint;sketch=0;fillStyle=solid;size=6;pointerEvents=1;points=[];fillColor=none;resizable=0;rotatable=0;perimeter=centerPerimeter;snapToPoint=1;verticalAlign=top;align=left;fontStyle=0;horizontal=1;spacing=2;spacingTop=2;spacingLeft=8;" vertex="1" parent="158">
                    <mxGeometry x="580" y="500" width="40" height="40" as="geometry"/>
                </mxCell>
                <mxCell id="272" value="5" style="shape=waypoint;sketch=0;fillStyle=solid;size=6;pointerEvents=1;points=[];fillColor=none;resizable=0;rotatable=0;perimeter=centerPerimeter;snapToPoint=1;verticalAlign=top;align=left;fontStyle=0;horizontal=1;spacing=2;spacingTop=2;spacingLeft=8;" vertex="1" parent="158">
                    <mxGeometry x="540" y="500" width="40" height="40" as="geometry"/>
                </mxCell>
                <mxCell id="273" value="6" style="shape=waypoint;sketch=0;fillStyle=solid;size=6;pointerEvents=1;points=[];fillColor=none;resizable=0;rotatable=0;perimeter=centerPerimeter;snapToPoint=1;verticalAlign=top;align=left;fontStyle=0;horizontal=1;spacing=2;spacingTop=2;spacingLeft=8;" vertex="1" parent="158">
                    <mxGeometry x="500" y="500" width="40" height="40" as="geometry"/>
                </mxCell>
                <mxCell id="274" value="7" style="shape=waypoint;sketch=0;fillStyle=solid;size=6;pointerEvents=1;points=[];fillColor=none;resizable=0;rotatable=0;perimeter=centerPerimeter;snapToPoint=1;verticalAlign=top;align=left;fontStyle=0;horizontal=1;spacing=2;spacingTop=2;spacingLeft=8;" vertex="1" parent="158">
                    <mxGeometry x="460" y="500" width="40" height="40" as="geometry"/>
                </mxCell>
                <mxCell id="275" value="8" style="shape=waypoint;sketch=0;fillStyle=solid;size=6;pointerEvents=1;points=[];fillColor=none;resizable=0;rotatable=0;perimeter=centerPerimeter;snapToPoint=1;verticalAlign=top;align=left;fontStyle=0;horizontal=1;spacing=2;spacingTop=2;spacingLeft=8;" vertex="1" parent="158">
                    <mxGeometry x="420" y="500" width="40" height="40" as="geometry"/>
                </mxCell>
                <mxCell id="276" value="9" style="shape=waypoint;sketch=0;fillStyle=solid;size=6;pointerEvents=1;points=[];fillColor=none;resizable=0;rotatable=0;perimeter=centerPerimeter;snapToPoint=1;verticalAlign=top;align=left;fontStyle=0;horizontal=1;spacing=2;spacingTop=2;spacingLeft=8;" vertex="1" parent="158">
                    <mxGeometry x="380" y="500" width="40" height="40" as="geometry"/>
                </mxCell>
                <mxCell id="277" value="1" style="shape=waypoint;sketch=0;fillStyle=solid;size=6;pointerEvents=1;points=[];fillColor=none;resizable=0;rotatable=0;perimeter=centerPerimeter;snapToPoint=1;verticalAlign=top;align=left;fontStyle=0;horizontal=1;spacing=2;spacingTop=2;spacingLeft=8;" vertex="1" parent="158">
                    <mxGeometry x="340" y="500" width="40" height="40" as="geometry"/>
                </mxCell>
                <mxCell id="280" value="2" style="shape=waypoint;sketch=0;fillStyle=solid;size=6;pointerEvents=1;points=[];fillColor=none;resizable=0;rotatable=0;perimeter=centerPerimeter;snapToPoint=1;verticalAlign=top;align=left;fontStyle=0;horizontal=1;spacing=2;spacingTop=2;spacingLeft=8;" vertex="1" parent="158">
                    <mxGeometry x="660" y="300" width="40" height="40" as="geometry"/>
                </mxCell>
                <mxCell id="281" value="3" style="shape=waypoint;sketch=0;fillStyle=solid;size=6;pointerEvents=1;points=[];fillColor=none;resizable=0;rotatable=0;perimeter=centerPerimeter;snapToPoint=1;verticalAlign=top;align=left;fontStyle=0;horizontal=1;spacing=2;spacingTop=2;spacingLeft=8;" vertex="1" parent="158">
                    <mxGeometry x="660" y="340" width="40" height="40" as="geometry"/>
                </mxCell>
                <mxCell id="282" value="4" style="shape=waypoint;sketch=0;fillStyle=solid;size=6;pointerEvents=1;points=[];fillColor=none;resizable=0;rotatable=0;perimeter=centerPerimeter;snapToPoint=1;verticalAlign=top;align=left;fontStyle=0;horizontal=1;spacing=2;spacingTop=2;spacingLeft=8;" vertex="1" parent="158">
                    <mxGeometry x="660" y="380" width="40" height="40" as="geometry"/>
                </mxCell>
                <mxCell id="283" value="5" style="shape=waypoint;sketch=0;fillStyle=solid;size=6;pointerEvents=1;points=[];fillColor=none;resizable=0;rotatable=0;perimeter=centerPerimeter;snapToPoint=1;verticalAlign=top;align=left;fontStyle=0;horizontal=1;spacing=2;spacingTop=2;spacingLeft=8;" vertex="1" parent="158">
                    <mxGeometry x="660" y="420" width="40" height="40" as="geometry"/>
                </mxCell>
                <mxCell id="284" value="6" style="shape=waypoint;sketch=0;fillStyle=solid;size=6;pointerEvents=1;points=[];fillColor=none;resizable=0;rotatable=0;perimeter=centerPerimeter;snapToPoint=1;verticalAlign=top;align=left;fontStyle=0;horizontal=1;spacing=2;spacingTop=2;spacingLeft=8;" vertex="1" parent="158">
                    <mxGeometry x="660" y="460" width="40" height="40" as="geometry"/>
                </mxCell>
                <mxCell id="285" value="圈" style="locked=1;" parent="0"/>
                <mxCell id="299" value="" style="endArrow=block;html=1;fontSize=12;edgeStyle=orthogonalEdgeStyle;elbow=vertical;curved=1;strokeWidth=1;shape=flexArrow;width=4;endSize=4;entryX=0.625;entryY=0.575;entryDx=0;entryDy=0;entryPerimeter=0;" edge="1" parent="285" source="172" target="221">
                    <mxGeometry width="50" height="50" relative="1" as="geometry">
                        <mxPoint x="570" y="220" as="sourcePoint"/>
                        <mxPoint x="560" y="360" as="targetPoint"/>
                        <Array as="points">
                            <mxPoint x="720" y="160"/>
                            <mxPoint x="720" y="520"/>
                            <mxPoint x="360" y="520"/>
                            <mxPoint x="360" y="200"/>
                            <mxPoint x="680" y="200"/>
                            <mxPoint x="680" y="480"/>
                            <mxPoint x="400" y="480"/>
                            <mxPoint x="400" y="240"/>
                            <mxPoint x="640" y="240"/>
                            <mxPoint x="640" y="440"/>
                            <mxPoint x="440" y="440"/>
                            <mxPoint x="440" y="280"/>
                            <mxPoint x="600" y="280"/>
                            <mxPoint x="600" y="400"/>
                            <mxPoint x="480" y="400"/>
                            <mxPoint x="480" y="320"/>
                            <mxPoint x="560" y="320"/>
                            <mxPoint x="560" y="360"/>
                        </Array>
                    </mxGeometry>
                </mxCell>
            </root>
        </mxGraphModel>
    </diagram>
</mxfile>